<svg width="30" height="25" viewBox="0 0 30 25" fill="none" xmlns="http://www.w3.org/2000/svg">
<path d="M27.6801 1.00002H1.56472C1.44938 0.999129 1.33671 1.03398 1.24198 1.09976C1.14725 1.16555 1.07512 1.25905 1.03567 1.36742C0.995173 1.4767 0.989026 1.59574 1.01791 1.70864C1.04679 1.82155 1.10931 1.92286 1.19731 1.99927L11.132 10.4059L13.5423 23.5296C13.5659 23.6455 13.623 23.7517 13.7066 23.8353C13.7902 23.9189 13.8966 23.9764 14.0125 24H14.1154C14.2134 23.9988 14.3093 23.9725 14.3942 23.9236C14.4791 23.8747 14.5501 23.8046 14.6004 23.7205L28.0405 1.00002H27.6801Z" stroke="white" stroke-width="1.2" stroke-miterlimit="10"/>
<path d="M11.1322 10.3031L27.739 1.20605" stroke="white" stroke-width="1.2" stroke-miterlimit="10"/>
</svg>
