<svg width="25" height="20" viewBox="0 0 25 20" fill="none" xmlns="http://www.w3.org/2000/svg">
<path d="M23.9917 6.63971V15.7118C23.9736 16.1949 23.8559 16.6698 23.6454 17.1094C23.4348 17.549 23.1356 17.9447 22.7647 18.2739C22.3938 18.603 21.9587 18.8591 21.484 19.0276C21.0094 19.196 20.5046 19.2735 19.9985 19.2556H4.23238C3.21095 19.2897 2.21705 18.9358 1.46853 18.2715C0.720018 17.6072 0.277945 16.6867 0.239258 15.7118V6.63971C0.239258 5.23794 1.52631 4.2772 3.09385 4.10395C4.07563 4.00945 6.73219 3.49755 7.00444 3.20617C7.44171 2.74154 8.37398 1.55239 8.65449 1.22951C8.71529 1.15176 8.78755 1.08279 8.869 1.02475C9.10303 0.846648 9.39476 0.751994 9.69402 0.757027H14.6442C14.8189 0.755389 14.9922 0.787266 15.1538 0.850851C15.3154 0.914436 15.4619 1.00841 15.5847 1.12713L15.6589 1.20587C15.8734 1.46574 17.1027 2.74152 17.5565 3.22977C17.8288 3.51328 20.2791 4.01732 21.2196 4.10395C22.7129 4.2772 23.9917 5.24581 23.9917 6.63971ZM12.1196 6.55309C11.101 6.55154 10.1049 6.83841 9.25719 7.37742C8.4095 7.91644 7.74835 8.68336 7.35743 9.58114C6.96652 10.4789 6.86344 11.4673 7.06114 12.421C7.25885 13.3748 7.74847 14.2511 8.46812 14.9391C9.18777 15.6272 10.1051 16.0959 11.104 16.2862C12.1028 16.4764 13.1383 16.3796 14.0795 16.0079C15.0207 15.6362 15.8252 15.0063 16.3913 14.1981C16.9573 13.3898 17.2595 12.4394 17.2595 11.4672C17.2595 10.1659 16.7179 8.91804 15.754 7.99795C14.7901 7.07786 13.4828 6.56098 12.1196 6.56098V6.55309Z" stroke="white" stroke-width="1.2" stroke-miterlimit="10"/>
</svg>
