<svg width="21" height="21" viewBox="0 0 21 21" fill="none" xmlns="http://www.w3.org/2000/svg">
<path d="M16.4622 7.75444L13.5211 9.54057C13.4485 9.59363 13.3599 9.62219 13.2689 9.62219C13.1779 9.62219 13.0892 9.59363 13.0166 9.54057L10.6873 7.84824C10.5129 7.72153 10.3128 7.63164 10.1 7.58511C9.88725 7.53858 9.66671 7.53621 9.45291 7.57801C9.23129 7.61202 9.02019 7.69323 8.83464 7.81528C8.64909 7.93733 8.49367 8.09739 8.37951 8.28425L5.98586 12.3128C5.94827 12.3775 5.93422 12.4528 5.94589 12.5262C5.95757 12.5996 5.99429 12.667 6.05026 12.7179C6.11028 12.7625 6.18388 12.7863 6.25958 12.7863C6.33528 12.7863 6.40888 12.7625 6.4689 12.7179L9.57103 10.88C9.65655 10.8304 9.75663 10.8094 9.85569 10.8207C9.95475 10.832 10.0472 10.8749 10.1185 10.9424L11.9754 12.7488C12.2608 13.0239 12.6459 13.1803 13.0488 13.1848H13.2635C13.4875 13.1459 13.6998 13.0598 13.8854 12.9323C14.0709 12.8049 14.2251 12.6394 14.3369 12.4477L16.8272 8.19045C16.8648 8.1257 16.8788 8.05092 16.8672 7.97752C16.8555 7.90412 16.8188 7.8367 16.7628 7.78588C16.7188 7.7581 16.6686 7.74059 16.6164 7.73518C16.5641 7.72976 16.5113 7.73631 16.4622 7.75444Z" stroke="#A099A6" stroke-width="1.2" stroke-miterlimit="10"/>
<path d="M17.5683 3.63638C16.6765 2.78363 15.618 2.11106 14.4545 1.65861C13.2911 1.20616 12.0461 0.982675 10.7922 1.00105C9.53842 1.01942 8.30092 1.27926 7.15217 1.76559C6.00341 2.25192 4.96638 2.95511 4.10172 3.8336C3.23707 4.7121 2.56216 5.7484 2.11636 6.88213C1.67056 8.01587 1.46289 9.22436 1.50543 10.4366C1.54798 11.6489 1.83988 12.8406 2.36414 13.9425C2.8884 15.0444 3.63449 16.0344 4.55876 16.8541V19.564C4.55872 19.6779 4.60473 19.7872 4.68697 19.8687C4.76921 19.9502 4.88112 19.9973 4.99882 20C5.07352 19.9986 5.14693 19.9811 5.21351 19.9483L7.61791 18.6504C9.63651 19.375 11.8506 19.4097 13.8926 18.7493C15.9346 18.0888 17.6817 16.7727 18.8437 15.0193C20.0057 13.2659 20.5128 11.181 20.2808 9.11036C20.0488 7.03973 19.0917 5.10823 17.5683 3.63638V3.63638Z" stroke="#A099A6" stroke-width="1.2" stroke-miterlimit="10"/>
</svg>
