<svg width="18" height="18" viewBox="0 0 18 18" fill="none" xmlns="http://www.w3.org/2000/svg">
<path d="M14.6492 3.22011C13.8917 2.502 12.9925 1.93563 12.0042 1.55462C11.0159 1.17361 9.95832 0.98541 8.89327 1.00088C7.82822 1.01635 6.77703 1.23516 5.80122 1.64471C4.82541 2.05425 3.94451 2.64641 3.21003 3.38619C2.47555 4.12598 1.90225 4.99865 1.52357 5.95338C1.14489 6.9081 0.968473 7.92578 1.00462 8.94665C1.04076 9.96752 1.28871 10.971 1.73404 11.8989C2.17937 12.8268 2.81314 13.6605 3.59825 14.3508V16.6328C3.59822 16.7287 3.63731 16.8208 3.70716 16.8894C3.77702 16.958 3.87209 16.9977 3.97206 17C4.03552 16.9988 4.09788 16.9841 4.15443 16.9565L6.19684 15.8635C7.91154 16.4737 9.7923 16.5029 11.5269 15.9467C13.2614 15.3906 14.7455 14.2823 15.7326 12.8058C16.7196 11.3292 17.1504 9.57346 16.9533 7.82977C16.7563 6.08609 15.9432 4.45957 14.6492 3.22011V3.22011Z" stroke="#A099A6" stroke-opacity="0.7" stroke-width="1.2" stroke-miterlimit="10"/>
</svg>
