<svg width="22" height="18" viewBox="0 0 22 18" fill="none" xmlns="http://www.w3.org/2000/svg">
<path d="M20.2468 1.00001H1.8968C1.81576 0.999388 1.73659 1.02387 1.67003 1.0701C1.60346 1.11632 1.55278 1.18202 1.52506 1.25817C1.49661 1.33496 1.49229 1.41859 1.51258 1.49793C1.53288 1.57726 1.57681 1.64845 1.63864 1.70214L8.61929 7.60906L10.3128 16.8305C10.3294 16.9119 10.3695 16.9865 10.4283 17.0453C10.4871 17.104 10.5618 17.1444 10.6432 17.161H10.7156C10.7844 17.1601 10.8518 17.1416 10.9115 17.1073C10.9711 17.0729 11.021 17.0237 11.0563 16.9646L20.5 1.00001H20.2468Z" stroke="#A099A5" stroke-width="1.2" stroke-miterlimit="10"/>
<path d="M8.61919 7.53669L20.288 1.14465" stroke="#A099A5" stroke-width="1.2" stroke-miterlimit="10"/>
</svg>
