<svg width="20" height="20" viewBox="0 0 20 20" fill="none" xmlns="http://www.w3.org/2000/svg">
<path d="M16.4257 8.16474C16.4273 9.63013 15.9735 11.063 15.1218 12.2822C14.27 13.5013 13.0585 14.452 11.6407 15.0138C10.2228 15.5756 8.66218 15.7234 7.15629 15.4384C5.6504 15.1535 4.2669 14.4485 3.18079 13.4129C2.09469 12.3772 1.35482 11.0574 1.05474 9.62024C0.754657 8.18311 0.907841 6.69333 1.49497 5.33934C2.0821 3.98535 3.07677 2.82802 4.35313 2.01373C5.62948 1.19945 7.13018 0.764771 8.66538 0.764771C10.7222 0.764769 12.6948 1.54416 14.15 2.9317C15.6051 4.31924 16.4236 6.20146 16.4257 8.16474V8.16474ZM14.6508 13.483C14.3882 13.2095 14.03 13.1107 13.8549 13.2626C13.6798 13.4146 13.7514 13.764 14.014 14.0223L18.726 18.9607C18.9887 19.2342 19.3389 19.333 19.5219 19.1811C19.705 19.0291 19.6254 18.6872 19.3627 18.4213L14.6508 13.483Z" stroke="white" stroke-width="1.2" stroke-miterlimit="10"/>
</svg>
